<svg xmlns="http://www.w3.org/2000/svg" width="20" height="20" viewBox="0 0 20 20"><defs><style>.a{fill:#ffa726;}.b{fill:#fff;stroke:#fff;stroke-width:0.5px;}</style></defs><circle class="a" cx="10" cy="10" r="10"/><path class="b" d="M7,1a6.035,6.035,0,0,1,4.476,2.01V1.381a.286.286,0,1,1,.571,0V3.762a.281.281,0,0,1-.286.286H9.381a.286.286,0,1,1,0-.571h1.752A5.381,5.381,0,0,0,7,1.571,5.438,5.438,0,0,0,1.571,7,.286.286,0,1,1,1,7,6.011,6.011,0,0,1,7,1ZM2.238,9.952H4.619a.286.286,0,0,1,0,.571H2.876A5.361,5.361,0,0,0,7,12.429,5.438,5.438,0,0,0,12.429,7,.286.286,0,1,1,13,7,6,6,0,0,1,2.524,10.99v1.629a.286.286,0,1,1-.571,0V10.238A.281.281,0,0,1,2.238,9.952Z" transform="translate(3.5 3.5)"/></svg>